<svg aria-hidden="true" style="position: absolute; width: 0; height: 0; overflow: hidden;" version="1.1" xmlns="http://www.w3.org/2000/svg" xmlns:xlink="http://www.w3.org/1999/xlink">
<defs>
<symbol id="icon-logo" viewBox="0 0 37 32">
<path d="M0 0h37.053v3.368h-37.053zM0 28.632h37.053v3.368h-37.053zM13.665 15.688h-3.691l-0.020-2.152h3.049c0.54 0 0.977-0.066 1.313-0.197 0.342-0.131 0.592-0.323 0.749-0.573 0.158-0.257 0.237-0.573 0.237-0.947 0-0.428-0.079-0.773-0.237-1.036s-0.408-0.455-0.75-0.573c-0.335-0.125-0.77-0.188-1.303-0.188h-1.875v11.872h-3.217v-14.369h5.091c0.862 0 1.632 0.079 2.309 0.237s1.254 0.401 1.727 0.73c0.48 0.328 0.845 0.74 1.095 1.234 0.251 0.493 0.376 1.075 0.376 1.747 0 0.585-0.131 1.132-0.395 1.638-0.256 0.507-0.67 0.918-1.243 1.234s-1.339 0.487-2.299 0.514l-0.918 0.829zM13.536 21.895h-4.381l1.165-2.487h3.217c0.493 0 0.895-0.079 1.204-0.237s0.536-0.372 0.68-0.642c0.145-0.269 0.217-0.573 0.217-0.908 0-0.395-0.069-0.737-0.207-1.027-0.133-0.29-0.352-0.522-0.624-0.667l-0.008-0.004c-0.283-0.157-0.661-0.237-1.134-0.237h-2.882l0.019-2.152h3.523l0.749 0.849c0.915-0.019 1.645 0.128 2.191 0.444 0.552 0.31 0.951 0.717 1.194 1.224s0.365 1.043 0.365 1.608c0 0.935-0.2 1.718-0.601 2.349-0.402 0.625-0.997 1.095-1.786 1.411-0.783 0.316-1.751 0.474-2.902 0.474zM30.678 19.408v2.487h-7.648v-2.487h7.648zM24.125 7.526v14.369h-3.217v-14.369h3.217zM29.691 13.309v2.408h-6.661v-2.408h6.661zM30.687 7.527v2.496h-7.657v-2.496h7.657z"></path>
</symbol>
<symbol id="icon-mob-menu" viewBox="0 0 48 32">
<path d="M0 0h48v6.4h-48zM0 12.8h48v6.4h-48zM0 25.6h48v6.4h-48z"></path>
</symbol>
</defs>
</svg>
